<svg width="44" height="32" viewBox="0 0 44 32" fill="none" xmlns="http://www.w3.org/2000/svg">
<ellipse cx="24.1617" cy="16" rx="19.6656" ry="16" fill="#C10943"/>
<path d="M2 27.4285L5.74584 21.3333L8.86737 25.5237L2 27.4285Z" fill="#C10943" stroke="#C10943"/>
<path d="M24.5757 24.3C27.0957 24.3 28.9757 22.32 28.9757 19.6C28.9757 16.96 27.5357 15.2 25.1357 15.2C23.5357 15.2 22.2157 15.94 21.1757 17.42H21.0557L21.4157 17.66C22.4557 16.48 23.4557 16.02 24.5757 16.02C26.2757 16.02 27.3157 17.32 27.3157 19.7C27.3157 22.26 26.0957 23.68 24.5957 23.68C22.7357 23.68 21.6357 21.7 21.6357 18.3C21.6357 14.04 23.9757 10.58 28.5757 9.6L28.4957 9.16C23.1957 9.78 19.8957 13.84 19.8957 18.46C19.8957 22.02 21.6757 24.3 24.5757 24.3Z" fill="white"/>
</svg>
