<svg width="44" height="32" viewBox="0 0 44 32" fill="none" xmlns="http://www.w3.org/2000/svg">
<ellipse cx="24.1617" cy="16" rx="19.6656" ry="16" fill="#C10943"/>
<path d="M2 27.4285L5.74584 21.3333L8.86737 25.5237L2 27.4285Z" fill="#C10943" stroke="#C10943"/>
<path d="M23.7157 24.3C26.8357 24.3 28.8357 22.44 28.8357 19.62C28.8357 16.76 26.9957 15.24 24.1157 15.24C22.9757 15.24 22.0157 15.44 20.9557 16L21.5557 16.18L21.9957 9.94L21.6157 10.86H28.4357V9.44H21.2957L20.8157 16.34L21.3357 16.52C22.0357 16.22 22.7957 16.06 23.6757 16.06C25.7157 16.06 27.0757 17.22 27.0757 19.7C27.0757 22.24 25.7757 23.68 23.4757 23.68C22.5557 23.68 21.9957 23.5 21.2957 23.12L21.9757 23.7L21.4157 21.86C21.2757 21.12 20.9957 20.86 20.5157 20.86C20.1157 20.86 19.8157 21.08 19.6757 21.46C20.0357 23.28 21.5357 24.3 23.7157 24.3Z" fill="white"/>
</svg>
