<svg width="44" height="32" viewBox="0 0 44 32" fill="none" xmlns="http://www.w3.org/2000/svg">
<ellipse cx="24.1617" cy="16" rx="19.6656" ry="16" fill="#C10943"/>
<path d="M2 27.4285L5.74584 21.3333L8.86737 25.5237L2 27.4285Z" fill="#C10943" stroke="#C10943"/>
<path d="M23.9255 24.3C26.7255 24.3 28.6655 22.7 28.6655 20.24C28.6655 17.94 27.2255 16.42 24.1255 16.26V16.48C26.8655 16.14 28.2455 14.56 28.2455 12.66C28.2455 10.58 26.7455 9.16 24.1855 9.16C22.2855 9.16 20.5255 9.96 20.1855 11.92C20.3055 12.28 20.5855 12.44 20.9255 12.44C21.4255 12.44 21.7255 12.2 21.9055 11.54L22.4455 9.74L21.5855 10.32C22.3855 9.92 23.0655 9.78 23.8255 9.78C25.5655 9.78 26.5455 10.86 26.5455 12.72C26.5455 14.86 25.1655 16.02 23.2255 16.02H22.4055V16.72H23.3255C25.7255 16.72 26.9455 17.98 26.9455 20.18C26.9455 22.32 25.6855 23.68 23.4655 23.68C22.5855 23.68 21.9655 23.48 21.2855 23.1L22.0655 23.76L21.5055 21.88C21.3255 21.12 21.0455 20.84 20.5655 20.84C20.1855 20.84 19.8655 21.06 19.7255 21.46C20.1455 23.34 21.6455 24.3 23.9255 24.3Z" fill="white"/>
</svg>
