<svg width="44" height="32" viewBox="0 0 44 32" fill="none" xmlns="http://www.w3.org/2000/svg">
<ellipse cx="24.0797" cy="16" rx="19.6656" ry="16" fill="#C10943"/>
<path d="M1.91797 27.4287L5.66381 21.3335L8.78534 25.524L1.91797 27.4287Z" fill="#C10943" stroke="#C10943"/>
<path d="M19.9737 24H28.9337V22.6H20.9537V22.3L20.7737 22.92C22.1137 21.48 23.4537 20 24.0737 19.38C27.1137 16.24 28.3137 14.8 28.3137 12.96C28.3137 10.58 26.9537 9.16 24.2737 9.16C22.2137 9.16 20.3137 10.2 19.9937 12.22C20.1137 12.62 20.4137 12.86 20.8137 12.86C21.2537 12.86 21.5937 12.6 21.7737 11.82L22.3137 9.84L21.4937 10.46C22.3337 9.94 23.0337 9.78 23.7737 9.78C25.5737 9.78 26.6137 10.9 26.6137 12.92C26.6137 14.68 25.7537 16.08 23.6137 18.64C22.6337 19.78 21.3137 21.36 19.9737 22.94V24Z" fill="white"/>
</svg>
